<?xml version="1.0" encoding="utf-8"?>
<!-- Generator: Adobe Illustrator 23.1.0, SVG Export Plug-In . SVG Version: 6.00 Build 0)  -->
<svg version="1.1" xmlns="http://www.w3.org/2000/svg" xmlns:xlink="http://www.w3.org/1999/xlink" x="0px" y="0px"
	 viewBox="0 0 106.97 53.48" style="enable-background:new 0 0 106.97 53.48;" xml:space="preserve">
<style type="text/css">
	.st0{fill:#FFFFFF;}
	.st1{fill:none;}
	.st2{fill:#F1592A;}
	.st3{fill:#58585A;}
	.st4{fill:#ED1C24;}
	.st5{fill:#FCFCFC;}
	.st6{fill:#010101;}
	.st7{fill:#EA5524;}
	.st8{fill:#3D3F8F;}
	.st9{fill:#2E292D;}
	.st10{fill:#555A5C;}
	.st11{fill:#565A5C;}
	.st12{fill:#585D5F;}
	.st13{fill:#575C5E;}
	.st14{fill:#585C5E;}
	.st15{fill:#169747;}
	.st16{fill:#54595B;}
	.st17{fill:#C52470;}
	.st18{fill:#289E47;}
	.st19{fill:#77BF45;}
	.st20{fill:#66B845;}
	.st21{fill:#3FA846;}
	.st22{fill:#E12878;}
	.st23{fill:#52AF47;}
	.st24{fill:#AE1F26;}
	.st25{fill:#156F3A;}
	.st26{fill:#808080;}
	.st27{fill:#FEFEFE;}
	.st28{fill:#006341;}
	.st29{fill:#231F20;}
	.st30{fill:#FD0606;}
	.st31{fill:#FD0404;}
	.st32{fill:#030303;}
	.st33{fill:#FD0303;}
	.st34{fill:#020202;}
	.st35{fill:#080808;}
	.st36{fill:#FD0000;}
	.st37{fill:#0F0F0F;}
	.st38{fill:#F7F7F7;}
	.st39{fill:#F3F3F3;}
	.st40{fill:#FDD700;}
	.st41{fill:#00863E;}
	.st42{filter:url(#Adobe_OpacityMaskFilter);}
	.st43{filter:url(#Adobe_OpacityMaskFilter_1_);}
	.st44{mask:url(#SVGID_3_);fill:url(#SVGID_4_);}
	.st45{fill:url(#SVGID_5_);}
	.st46{filter:url(#Adobe_OpacityMaskFilter_2_);}
	.st47{filter:url(#Adobe_OpacityMaskFilter_3_);}
	.st48{mask:url(#SVGID_6_);fill:url(#SVGID_7_);}
	.st49{fill:url(#SVGID_8_);}
	.st50{fill:#EC3A3F;}
	.st51{fill:#0067B0;}
	.st52{fill:#F8AA18;}
	.st53{fill:#6AB645;}
	.st54{fill:#EA2327;}
	.st55{fill:#F7CA16;}
	.st56{fill:#050505;}
	.st57{fill:#E2E2E2;}
	.st58{fill:#E10717;}
	.st59{fill:#131F6B;}
	.st60{fill:#50A3C9;}
	.st61{fill:#0069A6;}
	.st62{fill:#0086B8;}
	.st63{fill:#91C1DB;}
	.st64{fill:#CAE0ED;}
	.st65{fill:#F35885;}
	.st66{fill:none;stroke:#231F20;stroke-width:0.5;}
	.st67{fill:#808184;}
	.st68{fill:#818285;}
	.st69{fill:#828386;}
	.st70{fill:#838487;}
	.st71{fill:#848588;}
	.st72{fill:#858689;}
	.st73{fill:#86878A;}
	.st74{fill:#87888B;}
	.st75{fill:#88898C;}
	.st76{fill:#898A8D;}
	.st77{fill:#8A8B8E;}
	.st78{fill:#8B8C8F;}
	.st79{fill:#8C8D90;}
	.st80{fill:#8D8E91;}
	.st81{fill:#8E8F91;}
	.st82{fill:#8F9092;}
	.st83{fill:#909193;}
	.st84{fill:#919294;}
	.st85{fill:#929395;}
	.st86{fill:#939496;}
	.st87{fill:#949597;}
	.st88{fill:#949698;}
	.st89{fill:#959799;}
	.st90{fill:#96989A;}
	.st91{fill:#97999B;}
	.st92{fill:#989A9C;}
	.st93{fill:#999B9D;}
	.st94{fill:#9A9C9E;}
	.st95{fill:#9B9D9F;}
	.st96{fill:#9C9EA0;}
	.st97{fill:#9D9FA1;}
	.st98{fill:#9EA0A2;}
	.st99{fill:#9FA1A3;}
	.st100{fill:#A0A2A4;}
	.st101{fill:#A1A3A5;}
	.st102{fill:#A2A4A6;}
	.st103{fill:#A3A5A7;}
	.st104{fill:#A4A6A8;}
	.st105{fill:#A5A7A9;}
	.st106{fill:#A6A8AA;}
	.st107{fill:#A7A9AB;}
	.st108{fill:#A8AAAC;}
	.st109{fill:#A9AAAC;}
	.st110{fill:#AAABAD;}
	.st111{fill:#ABACAE;}
	.st112{fill:#ACADAF;}
	.st113{fill:#ADAEB0;}
	.st114{fill:#AEAFB1;}
	.st115{fill:#AFB0B2;}
	.st116{fill:#B0B1B3;}
	.st117{fill:#B1B2B4;}
	.st118{fill:#B2B3B5;}
	.st119{fill:#B3B4B6;}
	.st120{fill:#B4B5B7;}
	.st121{fill:#B5B6B8;}
	.st122{fill:#B6B7B9;}
	.st123{fill:#B7B8BA;}
	.st124{fill:#B8B9BB;}
	.st125{fill:#B9BABC;}
	.st126{fill:#BABBBD;}
	.st127{fill:#BBBCBE;}
	.st128{fill:#BCBDBF;}
	.st129{fill:#BCBEC0;}
	.st130{fill:#BDBFC1;}
	.st131{fill:#BEC0C2;}
	.st132{fill:#BFC1C3;}
	.st133{fill:#C0C2C4;}
	.st134{fill:#C1C3C5;}
	.st135{fill:#C2C4C6;}
	.st136{fill:#C3C5C6;}
	.st137{fill:#C4C6C7;}
	.st138{fill:#C5C7C8;}
	.st139{fill:#C6C8C9;}
	.st140{fill:#C7C9CA;}
	.st141{fill:#C8CACB;}
	.st142{fill:#C9CBCC;}
	.st143{fill:#CACCCD;}
	.st144{fill:#CBCDCE;}
	.st145{fill:#CCCECF;}
	.st146{fill:#CDCFD0;}
	.st147{fill:#CED0D1;}
	.st148{fill:#CFD1D2;}
	.st149{fill:#D0D2D3;}
	.st150{fill:#D1D3D4;}
	.st151{fill:#D2D4D5;}
	.st152{fill:#D3D5D6;}
	.st153{fill:#D4D6D7;}
	.st154{fill:#D5D6D7;}
	.st155{fill:#D6D7D8;}
	.st156{fill:#D7D8D9;}
	.st157{fill:#D8D9DA;}
	.st158{fill:#D9DADB;}
	.st159{fill:#DADBDC;}
	.st160{fill:#DBDCDD;}
	.st161{fill:#DCDDDE;}
	.st162{fill:#DDDEDF;}
	.st163{fill:#DEDFE0;}
	.st164{fill:#DFE0E1;}
	.st165{fill:#E0E1E2;}
	.st166{fill:#E1E2E3;}
	.st167{fill:#E2E3E4;}
	.st168{fill:#E3E4E5;}
	.st169{fill:#E4E5E6;}
	.st170{fill:#E5E6E7;}
	.st171{fill:#E6E7E8;}
	.st172{fill:#E7E8E9;}
	.st173{fill:#E8E8E9;}
	.st174{fill:#E9E9EA;}
	.st175{fill:#EAEAEB;}
	.st176{fill:#EBEBEC;}
	.st177{fill:#ECECED;}
	.st178{fill:#EDEDEE;}
	.st179{fill:#EEEEEF;}
	.st180{fill:#EFEFF0;}
	.st181{fill:#F0F0F1;}
	.st182{fill:#F1F1F2;}
	.st183{fill:#F2F2F2;}
	.st184{fill:#F4F4F4;}
	.st185{fill:#F5F5F5;}
	.st186{fill:#F6F6F6;}
	.st187{fill:#F6F6F7;}
	.st188{fill:#F7F7F8;}
	.st189{fill:#F8F8F9;}
	.st190{fill:#F9F9FA;}
	.st191{fill:#FAFAFA;}
	.st192{fill:#FBFBFB;}
	.st193{fill:#FDFDFD;}
	.st194{fill:#06357A;}
	.st195{fill:none;stroke:#06357A;stroke-width:0.2668;}
	.st196{fill:#B20838;}
	.st197{fill:#0160AF;}
	.st198{fill:#0260AF;}
	.st199{fill:#EB1C24;}
	.st200{clip-path:url(#SVGID_10_);}
	.st201{fill:#E21836;}
	.st202{fill:#673918;}
	.st203{fill:#702F86;}
	.st204{fill-rule:evenodd;clip-rule:evenodd;fill:#1D1D1B;}
	.st205{fill:#AFAFAF;}
	.st206{clip-path:url(#SVGID_12_);}
	.st207{fill:#1D1D1B;}
	.st208{clip-path:url(#SVGID_14_);fill:url(#SVGID_15_);}
	.st209{fill:#572700;}
	.st210{fill:#56008E;}
	.st211{fill:#201C51;}
	.st212{fill:#A8091E;}
	.st213{fill:#EC3E80;}
	.st214{fill:#8D8F92;}
	.st215{fill-rule:evenodd;clip-rule:evenodd;}
	.st216{fill-rule:evenodd;clip-rule:evenodd;fill:#FFFFFF;}
	.st217{fill-rule:evenodd;clip-rule:evenodd;fill:#E91C24;}
	.st218{stroke:#000000;stroke-miterlimit:10;}
	.st219{fill:#C4161C;}
	.st220{fill:#E93A0D;}
	.st221{fill:#CCCCCC;}
	.st222{fill-rule:evenodd;clip-rule:evenodd;fill:#0093D2;}
	.st223{fill-rule:evenodd;clip-rule:evenodd;fill:#003461;}
	.st224{fill-rule:evenodd;clip-rule:evenodd;fill:#F9B513;}
	.st225{fill:#EE2E24;}
	.st226{fill:#E91C24;}
	.st227{fill:#C6A54F;}
	.st228{fill:#E6233D;}
	.st229{fill:#221F1F;}
	.st230{fill-rule:evenodd;clip-rule:evenodd;fill:#E91E24;}
	.st231{fill:#B32428;}
	.st232{fill:#E9242B;}
	.st233{fill:#C62329;}
	.st234{fill:#025DA8;}
	.st235{fill:#FBB631;}
	.st236{fill:#1EA7DF;}
	.st237{fill:#1FA7DF;}
	.st238{fill:#015CA8;}
	.st239{fill:#035DA8;}
	.st240{fill:#24BDBC;}
	.st241{fill:#239D9F;}
	.st242{fill:#5D5D60;}
	.st243{fill:#90C64A;}
	.st244{fill:#56BA4F;}
	.st245{fill:#E8118E;}
	.st246{fill:#626265;}
	.st247{fill:#67676A;}
	.st248{fill:#DB2364;}
	.st249{fill:#FBFCFD;}
	.st250{fill:#F59223;}
	.st251{fill:#2F9FD8;}
	.st252{fill:#252122;}
	.st253{fill:#242021;}
	.st254{fill:#ED4D9C;}
	.st255{fill:#2F2C2D;}
	.st256{fill:#58C1EE;}
	.st257{fill:#0D80B6;}
	.st258{fill:#FE4141;}
	.st259{fill:#070707;}
	.st260{fill:#FC0D0D;}
	.st261{fill:#FE1212;}
	.st262{fill:#007CC2;}
	.st263{fill:#85C12E;}
	.st264{fill:#027BC3;}
	.st265{fill:#8AC232;}
	.st266{fill:#DCDDDB;}
	.st267{fill:#DBDDDB;}
	.st268{fill:#84C227;}
	.st269{fill:#84C226;}
	.st270{fill:#029241;}
	.st271{fill:#039341;}
	.st272{fill:#000001;}
	.st273{fill:#EC1C24;}
	.st274{fill:#00A551;}
	.st275{fill:#323031;}
	.st276{fill:#F26F21;}
	.st277{fill:#404041;}
	.st278{fill:#FFCA05;}
	.st279{fill:#214A9C;}
	.st280{fill:#DD2627;}
	.st281{fill:#C40202;}
	.st282{fill:#F16322;}
	.st283{fill:#F37B29;}
	.st284{fill:#F16323;}
	.st285{fill:#DD2027;}
	.st286{fill:#1F1F20;}
	.st287{fill:#B89F94;}
	.st288{fill:#203D73;}
	.st289{fill:#FAB92F;}
	.st290{fill:#096CB5;}
	.st291{fill:#F7AD37;}
	.st292{fill:#2B6599;}
	.st293{fill:#1D4063;}
	.st294{fill:#DD0B15;}
	.st295{fill-rule:evenodd;clip-rule:evenodd;fill:#231F20;}
	.st296{fill:#072B52;}
	.st297{fill:#279DF8;}
	.st298{fill:#DA251C;}
	.st299{fill:#004169;}
	.st300{fill:#F56432;}
	.st301{fill:#322E2F;}
	.st302{fill:#ED282F;}
	.st303{fill:#EA2231;}
	.st304{fill:#020000;}
	.st305{fill:#FEF9FA;}
	.st306{fill:#CE1C2A;}
	.st307{fill:#E83434;}
	.st308{fill:#F30A0E;}
	.st309{fill:#3C3A3B;}
	.st310{fill:#181818;}
	.st311{fill:#0D2A4F;}
	.st312{fill:#4A74B1;}
	.st313{fill:#12519C;}
	.st314{fill:#849CC5;}
	.st315{fill:#BDC0C8;}
	.st316{fill:#D51028;}
	.st317{fill:#EECE00;}
	.st318{fill:#1756C1;}
	.st319{fill:#1856C2;}
	.st320{fill:#1856C1;}
	.st321{fill:#FEFDFD;}
	.st322{fill:#069DD8;}
	.st323{fill:#EC2024;}
	.st324{fill:#AD8607;}
	.st325{fill:#AB8405;}
	.st326{fill:#A98305;}
	.st327{fill:#FBF9F3;}
	.st328{fill:#0F0F0D;}
	.st329{fill:#DECFA2;}
	.st330{fill:#C4A64A;}
	.st331{fill:#030200;}
	.st332{fill:#C9C3C3;}
	.st333{fill:#606060;}
	.st334{fill:#FE0303;}
	.st335{fill:#FE0202;}
	.st336{fill:#FE0404;}
	.st337{fill:#91B841;}
	.st338{fill:#94BA46;}
	.st339{fill:#EF4147;}
	.st340{fill:#EF4C52;}
	.st341{fill:#FEFEFD;}
	.st342{fill:#241D4A;}
	.st343{fill:#6ABE4C;}
	.st344{fill:#29234F;}
	.st345{fill:#251E4B;}
	.st346{fill:#261F4C;}
	.st347{fill:#F7481A;}
	.st348{fill:#F95226;}
	.st349{fill:#F94F22;}
	.st350{fill:#F95023;}
	.st351{fill:#F95024;}
	.st352{fill:#241C47;}
	.st353{fill:#312B55;}
	.st354{fill:#342E58;}
	.st355{fill:#F95124;}
	.st356{fill:#FB8813;}
	.st357{fill:#272049;}
	.st358{fill:#F94C1F;}
	.st359{fill:#2E2651;}
	.st360{fill:#28224E;}
	.st361{fill:#29224F;}
	.st362{fill:#D3D3D3;}
	.st363{fill:#E30D13;}
	.st364{clip-path:url(#SVGID_17_);}
	.st365{fill:#E9252B;}
	.st366{fill:#2176F3;}
	.st367{fill:#33B2CC;}
	.st368{fill:#05A5E5;}
	.st369{fill:#949BA0;}
	.st370{fill:#0D335A;}
	.st371{clip-path:url(#SVGID_19_);}
	.st372{fill:#FFFF00;}
	.st373{fill:#E3000B;}
	.st374{clip-path:url(#SVGID_21_);}
	.st375{clip-path:url(#SVGID_23_);fill:#08E8DE;}
	.st376{clip-path:url(#SVGID_23_);fill:#F57300;}
	.st377{clip-path:url(#SVGID_23_);fill:#0A1C3B;}
	.st378{clip-path:url(#SVGID_25_);}
	.st379{clip-path:url(#SVGID_27_);fill:#0298DD;}
	.st380{clip-path:url(#SVGID_27_);fill:#FEE801;}
	.st381{clip-path:url(#SVGID_27_);fill:#E75C1D;}
	.st382{clip-path:url(#SVGID_27_);fill:#E12625;}
	.st383{clip-path:url(#SVGID_27_);fill:#58B045;}
	.st384{clip-path:url(#SVGID_29_);}
	.st385{clip-path:url(#SVGID_31_);fill:#AF3F25;}
	.st386{clip-path:url(#SVGID_33_);}
	.st387{fill:#0BA1C1;}
	.st388{fill:#07A1C2;}
	.st389{clip-path:url(#SVGID_35_);}
	.st390{fill:#01386A;}
	.st391{clip-path:url(#SVGID_37_);}
	.st392{fill:#EA098D;}
	.st393{fill:#27ACDF;}
	.st394{clip-path:url(#SVGID_39_);}
	.st395{clip-path:url(#SVGID_41_);}
	.st396{fill:#CE142B;}
	.st397{fill:#00247D;}
	.st398{fill:#02257D;}
	.st399{fill:#CF172E;}
	.st400{fill:#FF0000;}
</style>
<g id="Layer_2_6_">
</g>
<g id="Layer_1">
	<g>
		<path class="st396" d="M48.14,0.02c3.56,0,7.13,0,10.69,0c0,7.1,0,14.2,0,21.38c16.19,0,32.16,0,48.13,0c0,3.56,0,7.13,0,10.69
			c-16.01,0-32.02,0-48.13,0c0,7.27,0,14.32,0,21.38c-3.56,0-7.13,0-10.69,0c0-7.1,0-14.2,0-21.38c-16.19,0-32.16,0-48.13,0
			c0-3.56,0-7.13,0-10.69c16.01,0,32.02,0,48.13,0C48.14,14.13,48.14,7.07,48.14,0.02z"/>
		<path class="st27" d="M48.14,0.02c0,7.06,0,14.11,0,21.38c-16.11,0-32.12,0-48.13,0c0-1.19,0-2.38,0-3.56c7.73,0,15.46,0,23.28,0
			c-0.28-0.44-0.6-0.55-0.91-0.7c-4.78-2.38-9.55-4.77-14.33-7.14C5.39,8.67,2.79,7.18,0.01,6.08c0-0.71,0-1.43,0-2.14
			c8.98,4.5,17.95,8.99,26.94,13.47c0.35,0.17,0.67,0.44,1.13,0.43c2.33-0.02,4.67-0.01,7.37-0.01c-0.61-0.37-0.89-0.55-1.18-0.7
			C25.72,12.85,17.17,8.59,8.63,4.3C5.86,2.9,2.98,1.72,0.37,0.02c4.04,0,8.08,0,12.12,0c0.11,0.49,0.61,0.51,0.93,0.67
			c9.9,4.97,19.81,9.92,29.73,14.85c0.39,0.19,0.75,0.62,1.42,0.4c0-5.28,0-10.6,0-15.92C45.76,0.02,46.95,0.02,48.14,0.02z"/>
		<path class="st27" d="M58.83,53.47c0-7.06,0-14.11,0-21.38c16.11,0,32.12,0,48.13,0c0,1.19,0,2.38,0,3.56c-7.66,0-15.32,0-22.99,0
			c-0.02,0.09-0.05,0.18-0.07,0.27c7.69,3.83,15.37,7.66,23.06,11.49c0,0.59,0,1.19,0,1.78c-0.66,0.17-1.11-0.31-1.62-0.57
			c-8.27-4.11-16.53-8.24-24.79-12.36c-0.52-0.26-1-0.63-1.64-0.62c-2.35,0.01-4.69,0-7.04,0c0.37,0.25,0.6,0.57,0.96,0.75
			c8.51,4.24,17.01,8.5,25.49,12.78c2.77,1.4,5.66,2.58,8.28,4.28c-3.92,0-7.84,0-11.76,0c-0.11-0.24-0.35-0.28-0.56-0.39
			c-10.3-5.15-20.61-10.31-30.91-15.47c-0.28-0.14-0.56-0.42-0.97-0.14c0,5.32,0,10.66,0,15.99C61.21,53.47,60.02,53.47,58.83,53.47
			z"/>
		<path class="st321" d="M0.01,32.09c15.97,0,31.94,0,48.13,0c0,7.18,0,14.28,0,21.38c-1.19,0-2.38,0-3.56,0c0-5.4,0-10.8,0-16.2
			c-0.46,0.01-0.79,0.21-1.15,0.39c-7.58,3.8-15.18,7.56-22.75,11.38c-2.86,1.44-5.84,2.67-8.54,4.43c-1.31,0-2.61,0-3.92,0
			c0.23-0.46,0.72-0.52,1.12-0.71c10.65-5.35,21.31-10.68,31.97-16.02c0.57-0.29,1.24-0.44,1.73-1.08c-2.07,0-4.03,0.03-5.99-0.01
			c-0.97-0.02-1.81,0.19-2.69,0.64c-10.64,5.35-21.3,10.65-31.94,15.98c-0.7,0.35-1.54,0.52-2.04,1.21C0.06,53.53,0,53.42,0,53.11
			c0.02-1.9,0.01-3.8,0.01-5.7c7.69-3.84,15.37-7.69,23.06-11.53c-0.03-0.08-0.06-0.15-0.1-0.23c-7.65,0-15.31,0-22.96,0
			C0.01,34.46,0.01,33.27,0.01,32.09z"/>
		<path class="st27" d="M106.96,21.4c-15.97,0-31.94,0-48.13,0c0-7.18,0-14.28,0-21.38c1.19,0,2.38,0,3.56,0c0,5.32,0,10.64,0,15.88
			c0.5,0.21,0.69-0.06,0.95-0.18c7.54-3.76,15.08-7.49,22.6-11.27c2.86-1.44,5.84-2.67,8.54-4.42c1.31,0,2.61,0,3.92,0
			c-0.22,0.47-0.72,0.53-1.11,0.72c-10.66,5.35-21.33,10.68-32,16.03c-0.55,0.28-1.16,0.46-1.75,1.07c2.29,0,4.4-0.03,6.51,0.02
			c0.86,0.02,1.6-0.21,2.35-0.6c8.8-4.42,17.62-8.81,26.42-13.23c2.61-1.31,5.3-2.45,7.78-4.01c0.31-0.07,0.37,0.05,0.37,0.36
			c-0.02,1.9-0.01,3.8-0.01,5.7c-0.3-0.02-0.54,0.09-0.81,0.23c-7.11,3.57-14.23,7.12-21.35,10.68c-0.43,0.21-0.9,0.36-1.25,0.85
			c7.87,0,15.64,0,23.41,0C106.96,19.02,106.96,20.21,106.96,21.4z"/>
		<path class="st397" d="M12.13,53.47c2.7-1.76,5.68-2.98,8.54-4.43c7.57-3.82,15.17-7.58,22.75-11.38
			c0.36-0.18,0.69-0.39,1.15-0.39c0,5.41,0,10.8,0,16.2C33.76,53.47,22.94,53.47,12.13,53.47z"/>
		<path class="st398" d="M62.4,53.47c0-5.34,0-10.67,0-15.99c0.41-0.28,0.69,0,0.97,0.14c10.31,5.15,20.61,10.31,30.91,15.47
			c0.21,0.1,0.45,0.14,0.56,0.39C84.02,53.47,73.21,53.47,62.4,53.47z"/>
		<path class="st397" d="M44.57,0.02c0,5.32,0,10.64,0,15.92c-0.68,0.22-1.03-0.2-1.42-0.4c-9.92-4.93-19.83-9.88-29.73-14.85
			c-0.32-0.16-0.82-0.18-0.93-0.67C23.18,0.02,33.88,0.02,44.57,0.02z"/>
		<path class="st397" d="M94.48,0.02c-2.7,1.75-5.67,2.98-8.54,4.42c-7.52,3.79-15.07,7.52-22.6,11.27
			c-0.25,0.13-0.45,0.4-0.95,0.18c0-5.24,0-10.56,0-15.88C73.09,0.02,83.79,0.02,94.48,0.02z"/>
		<path class="st399" d="M106.6,0.02c-2.48,1.56-5.17,2.7-7.78,4.01c-8.8,4.42-17.62,8.81-26.42,13.23
			c-0.76,0.38-1.49,0.62-2.35,0.6c-2.11-0.05-4.22-0.02-6.51-0.02c0.59-0.61,1.2-0.79,1.75-1.07c10.67-5.34,21.33-10.68,32-16.03
			c0.39-0.2,0.89-0.25,1.11-0.72C101.14,0.02,103.87,0.02,106.6,0.02z"/>
		<path class="st398" d="M0.01,6.08c2.78,1.11,5.38,2.59,8.05,3.92c4.78,2.37,9.55,4.76,14.33,7.14c0.3,0.15,0.63,0.26,0.91,0.7
			c-7.82,0-15.55,0-23.28,0C0.01,13.92,0.01,10,0.01,6.08z"/>
		<path class="st397" d="M106.96,17.83c-7.77,0-15.54,0-23.41,0c0.35-0.49,0.82-0.64,1.25-0.85c7.12-3.55,14.24-7.1,21.35-10.68
			c0.28-0.14,0.52-0.25,0.81-0.23C106.96,10,106.96,13.92,106.96,17.83z"/>
		<path class="st396" d="M0.37,53.47c0.5-0.7,1.34-0.86,2.04-1.21c10.64-5.33,21.3-10.63,31.94-15.98c0.88-0.44,1.72-0.66,2.69-0.64
			c1.96,0.04,3.91,0.01,5.99,0.01c-0.49,0.64-1.16,0.79-1.73,1.08C30.64,42.07,19.98,47.41,9.33,52.75
			c-0.39,0.2-0.89,0.25-1.12,0.71C5.6,53.47,2.98,53.47,0.37,53.47z"/>
		<path class="st397" d="M0.01,35.65c7.65,0,15.31,0,22.96,0c0.03,0.08,0.06,0.15,0.1,0.23C15.38,39.72,7.7,43.57,0.01,47.41
			C0.01,43.49,0.01,39.57,0.01,35.65z"/>
		<path class="st397" d="M106.96,47.41c-7.69-3.83-15.37-7.66-23.06-11.49c0.02-0.09,0.05-0.18,0.07-0.27c7.66,0,15.32,0,22.99,0
			C106.96,39.57,106.96,43.49,106.96,47.41z"/>
		<path class="st399" d="M106.6,53.47c-2.62-1.7-5.5-2.88-8.28-4.28c-8.49-4.28-16.98-8.54-25.49-12.78
			c-0.36-0.18-0.59-0.5-0.96-0.75c2.35,0,4.69,0.01,7.04,0c0.63,0,1.11,0.36,1.64,0.62c8.26,4.12,16.52,8.25,24.79,12.36
			c0.51,0.25,0.96,0.74,1.62,0.57c0,1.31-0.01,2.61,0.01,3.92C106.97,53.42,106.91,53.53,106.6,53.47z"/>
		<path class="st396" d="M0.37,0.02c2.61,1.7,5.5,2.88,8.27,4.28c8.54,4.29,17.09,8.55,25.64,12.83c0.29,0.15,0.57,0.33,1.18,0.7
			c-2.7,0-5.03-0.01-7.37,0.01c-0.46,0-0.78-0.26-1.13-0.43C17.96,12.93,8.99,8.43,0.01,3.94c0-1.2,0.01-2.39-0.01-3.59
			C-0.01,0.03,0.1-0.03,0.37,0.02z"/>
	</g>
</g>
</svg>
